<?xml version="1.0" encoding="UTF-8"?>
<svg id="Layer_1" data-name="Layer 1" xmlns="http://www.w3.org/2000/svg" viewBox="0 0 668 513">
  <defs>
    <style>
      .cls-1 {
        fill: none;
        stroke: #395174;
        stroke-width: 26px;
      }

      .cls-1, .cls-2 {
        stroke-linecap: round;
        stroke-miterlimit: 10;
      }

      .cls-2 {
        fill: #45000d;
        stroke: #ff004f;
        stroke-width: 24px;
      }
    </style>
  </defs>
  <path class="cls-1" d="m134,349c4.74,17.06,13.76,26.36,27,28,14.14-.54,22.34-8.57,28-36l19-108"/>
  <path class="cls-1" d="m276.34,149.85c-4.74-17.06-13.76-26.36-27-28-14.14.54-22.34,8.57-28,36l-19,108"/>
  <line class="cls-1" x1="170" y1="241" x2="245" y2="241"/>
  <line class="cls-1" x1="339.45" y1="244.86" x2="412.45" y2="319.86"/>
  <line class="cls-1" x1="336.45" y1="319.86" x2="412.45" y2="242.86"/>
  <path class="cls-1" d="m433,212c39.9,50.84,39.51,99.67-1.71,144.09"/>
  <path class="cls-1" d="m310.53,211.62c-39.9,50.84-39.51,99.67,1.71,144.09"/>
  <line class="cls-2" x1="121.48" y1="377.36" x2="463" y2="168"/>
</svg>